PathFileType	4	(X/Y/Z)	E:\Marcel_BSc\Marcel\30_01_2025\static_00.trc
DataRate	CameraRate	NumFrames	NumMarkers	Units	OrigDataRate	OrigDataStartFrame	OrigNumFrames
200.0	200.0	6	59	mm	200.0	20	158	
Frame#	Time	FHD			LBHD			RBHD			RBAR			LBAR			RASI			RSACR			LSACR			LASI			USACR			C7			CLAV			T10			RSHO			LSHO			LTHI1			LTHI3			LTHI2			LLFC			LMFC			LTIB1			LTIB2			LTIB3			LMMAL			LLMAL			LHEE			LMT1			LMT5			LMT3			RTHI1			RTHI2			RTHI3			RLFC			RMFC			RTIB1			RTIB3			RTIB2			RLMAL			RMMAL			RHEE			RMT5			RMT1			RMT3			LMEP			LLEP			LDUPA			LMUPA			LUUPA			LUL			LRAD			LRFIN			RUL			RRAD			RUFIN			RMEP			RLEP			RMUPA			RDUPA			RUUPA			
		X1	Y1	Z1	X2	Y2	Z2	X3	Y3	Z3	X4	Y4	Z4	X5	Y5	Z5	X6	Y6	Z6	X7	Y7	Z7	X8	Y8	Z8	X9	Y9	Z9	X10	Y10	Z10	X11	Y11	Z11	X12	Y12	Z12	X13	Y13	Z13	X14	Y14	Z14	X15	Y15	Z15	X16	Y16	Z16	X17	Y17	Z17	X18	Y18	Z18	X19	Y19	Z19	X20	Y20	Z20	X21	Y21	Z21	X22	Y22	Z22	X23	Y23	Z23	X24	Y24	Z24	X25	Y25	Z25	X26	Y26	Z26	X27	Y27	Z27	X28	Y28	Z28	X29	Y29	Z29	X30	Y30	Z30	X31	Y31	Z31	X32	Y32	Z32	X33	Y33	Z33	X34	Y34	Z34	X35	Y35	Z35	X36	Y36	Z36	X37	Y37	Z37	X38	Y38	Z38	X39	Y39	Z39	X40	Y40	Z40	X41	Y41	Z41	X42	Y42	Z42	X43	Y43	Z43	X44	Y44	Z44	X45	Y45	Z45	X46	Y46	Z46	X47	Y47	Z47	X48	Y48	Z48	X49	Y49	Z49	X50	Y50	Z50	X51	Y51	Z51	X52	Y52	Z52	X53	Y53	Z53	X54	Y54	Z54	X55	Y55	Z55	X56	Y56	Z56	X57	Y57	Z57	X58	Y58	Z58	X59	Y59	Z59	
20	0.09	103.26277	1818.0812	-579.63959	135.59015	1803.308	-521.25946	131.71169	1801.604	-650.48163	1237.7538	37.498711	-1766.9731	1248.088	32.391712	457.80432	98.371147	1048.062	-723.823	306.93759	1098.0289	-620.61969	302.6167	1095.1938	-556.73663	92.21846	1038.3512	-458.35376	298.52353	1111.8119	-588.57324	277.79037	1566.4055	-582.61609	115.03691	1531.2776	-583.82709	279.13168	1256.6628	-576.81055	239.10785	1604.4861	-733.30597	222.88699	1594.6202	-416.34546	226.61978	707.06299	-410.07397	256.54443	651.45636	-428.50204	209.44484	643.76093	-408.06204	220.63638	524.78027	-415.28516	174.16899	506.13629	-517.20618	222.02119	276.33545	-400.18851	269.20154	274.99673	-380.99802	242.67221	214.32195	-391.8602	268.0799	92.480904	-468.05637	287.0433	83.781769	-380.53217	344.07617	39.207333	-422.16992	115.26309	41.448898	-434.4234	145.14563	26.100517	-351.98874	122.67142	36.070396	-388.9295	206.48827	674.87885	-792.48975	253.29399	671.05389	-772.99371	225.18886	613.14954	-781.25842	202.33853	529.35791	-777.91223	178.66768	508.60864	-681.65692	259.58527	277.86407	-811.28119	291.62204	219.52852	-813.87341	240.51682	214.52942	-809.75574	292.75729	75.602814	-813.63672	245.10872	71.141541	-736.35651	340.10901	30.678789	-765.2533	173.11534	26.114676	-862.68945	109.41709	42.532951	-788.41528	134.06949	40.158562	-828.98285	159.60835	1469.1486	-113.76742	232.60333	1508.179	-115.27246	258.61169	1522.4521	-216.43008	226.13164	1560.2878	-218.75838	235.11166	1564.2802	-280.48044	169.52504	1562.2585	168.18933	140.44585	1627.2666	137.22867	166.72774	1656.2831	236.7867	215.19418	1591.7296	-1340.8203	194.63133	1658.7631	-1307.3129	225.4586	1681.4779	-1393.8689	177.24916	1484.5767	-1044.417	246.85789	1539.3405	-1056.7953	245.68063	1577.0175	-909.43414	253.5238	1564.3552	-969.77124	280.45218	1541.9425	-898.02472
21	0.095	103.27284	1818.068	-579.64209	135.61255	1803.2993	-521.24786	131.71162	1801.613	-650.4729	1237.7599	37.492661	-1766.9784	1248.0043	32.439762	457.96402	98.398155	1048.0741	-723.83069	306.9978	1098.0164	-620.63672	302.66678	1095.183	-556.75427	92.258293	1038.3622	-458.3656	298.56427	1111.8037	-588.60175	277.81348	1566.4116	-582.62384	115.08761	1531.2819	-583.83459	279.17252	1256.6786	-576.81604	239.11032	1604.5001	-733.29895	222.91602	1594.6364	-416.35312	226.65504	707.07361	-410.07672	256.58093	651.4845	-428.51013	209.47034	643.76001	-408.06903	220.6508	524.78058	-415.30035	174.16743	506.13303	-517.21844	221.99139	276.44489	-399.85452	269.21585	274.99368	-381.00327	242.67818	214.30605	-391.86841	268.0481	92.512512	-468.05664	287.04074	83.774925	-380.5347	343.95837	39.104656	-422.32156	115.26529	41.453484	-434.42462	145.14833	26.101465	-351.99051	122.67376	36.07613	-388.93246	206.49129	674.87244	-792.5318	253.33047	671.05054	-773.02344	225.18155	613.18683	-781.27924	202.34538	529.35602	-777.92871	178.67833	508.61703	-681.66754	259.58578	277.866	-811.30896	291.46652	219.6282	-813.94873	240.52074	214.52948	-809.76489	292.76367	75.591377	-813.64343	245.11069	71.143875	-736.35889	340.02371	30.667688	-765.32349	173.10661	26.119793	-862.70233	109.41992	42.530949	-788.41272	134.06151	40.167778	-828.97614	159.61525	1469.167	-113.78207	232.61876	1508.1804	-115.28445	258.62662	1522.4781	-216.43454	226.0571	1560.3752	-218.41437	235.18886	1564.3794	-280.42786	169.54596	1562.2791	168.17982	140.46056	1627.2964	137.22945	166.75084	1656.2806	236.77872	215.20253	1591.6823	-1340.8214	194.6635	1658.7272	-1307.3199	225.49541	1681.4347	-1393.8821	177.29691	1484.3447	-1044.498	246.75523	1539.2771	-1056.848	245.69824	1577.0289	-909.43219	253.54933	1564.348	-969.76373	280.46796	1541.9519	-898.02289
22	0.1	103.28618	1818.058	-579.61902	135.62718	1803.2941	-521.23206	131.72327	1801.618	-650.46289	1237.7567	37.499748	-1766.9829	1247.9407	32.340054	457.95892	98.437965	1048.0867	-723.82715	307.04196	1098.0137	-620.66022	302.69717	1095.1675	-556.80261	92.307251	1038.386	-458.38263	298.6001	1111.7981	-588.63196	277.83868	1566.4165	-582.63727	115.12586	1531.2734	-583.84949	279.2168	1256.6985	-576.83099	239.12341	1604.515	-733.30493	222.95526	1594.6425	-416.3725	226.67397	707.05798	-410.08871	256.58505	651.4743	-428.53094	209.48431	643.76141	-408.08112	220.6487	524.77423	-415.31082	174.18771	506.13266	-517.23151	222.01015	276.35089	-400.17572	269.22379	274.9938	-381.01346	242.66785	214.32649	-391.86124	268.05771	92.505005	-468.05835	287.0509	83.777489	-380.53946	343.94678	39.191204	-422.27084	115.26467	41.455112	-434.42715	145.15085	26.106482	-351.99054	122.6748	36.077805	-388.94037	206.61815	674.92072	-792.5202	253.51605	671.15033	-773.39435	225.1534	613.15533	-781.34509	202.35046	529.35205	-777.95258	178.69211	508.62415	-681.67395	259.57297	277.87225	-811.31555	291.60339	219.52663	-813.9129	240.50519	214.5266	-809.776	292.76859	75.587242	-813.64313	245.11385	71.143745	-736.36316	339.94736	30.689844	-765.36566	173.10127	26.125906	-862.68787	109.41136	42.54018	-788.41589	134.077	40.143398	-828.99457	159.63423	1469.1855	-113.78916	232.64941	1508.2047	-115.27805	258.63846	1522.4912	-216.44553	226.06786	1560.3895	-218.40251	235.21555	1564.3889	-280.45319	169.52802	1562.2964	168.1591	140.48439	1627.3198	137.22272	166.78442	1656.2789	236.77672	215.2075	1591.6481	-1340.8306	194.69243	1658.697	-1307.3254	225.53146	1681.3798	-1393.8834	177.37144	1484.3386	-1044.4594	246.84669	1539.3195	-1056.7988	245.69749	1576.8766	-909.52545	253.5719	1564.3455	-969.77032	280.46976	1541.9625	-898.00732
23	0.105	103.30468	1818.0642	-579.60632	135.6449	1803.2799	-521.22302	131.73515	1801.6154	-650.45404	1237.7529	37.500301	-1766.9817	1248.0015	32.441414	457.98117	98.446671	1048.1039	-723.83453	307.06461	1097.9769	-620.72186	302.75955	1095.1412	-556.83466	92.35405	1038.3898	-458.39352	298.65112	1111.7867	-588.65485	277.85449	1566.4214	-582.64697	115.15369	1531.2661	-583.85645	279.25778	1256.6998	-576.85046	239.12941	1604.5253	-733.30988	222.98161	1594.647	-416.3811	226.68332	707.05389	-410.10959	256.61285	651.47327	-428.55496	209.50905	643.76434	-408.0914	220.6599	524.77386	-415.31683	174.16795	506.13553	-517.24371	222.03452	276.34103	-400.20944	269.21976	274.99078	-381.01956	242.68755	214.31902	-391.86176	268.06229	92.484001	-468.073	287.04691	83.777977	-380.53745	344.06625	39.206337	-422.17529	115.26305	41.452488	-434.422	145.14844	26.104111	-351.99573	122.67049	36.078087	-388.93521	206.62395	674.9212	-792.5354	253.51816	671.15631	-773.48523	225.16988	613.20184	-781.33093	202.34433	529.36078	-777.97803	178.71085	508.62564	-681.68597	259.5802	277.86435	-811.32458	291.46866	219.62532	-813.97388	240.50966	214.53122	-809.77411	292.77029	75.60408	-813.64948	245.1161	71.142113	-736.36487	340.10825	30.676189	-765.26001	173.09956	26.126314	-862.698	109.41083	42.533077	-788.41815	134.073	40.158131	-828.98541	159.63463	1469.2198	-113.80112	232.64923	1508.2174	-115.28909	258.66818	1522.5092	-216.44044	226.09369	1560.4161	-218.41711	235.23616	1564.3976	-280.47406	169.54886	1562.3162	168.15266	140.4973	1627.3429	137.2218	166.81454	1656.2906	236.78311	215.22667	1591.6156	-1340.8433	194.7272	1658.6699	-1307.3391	225.56509	1681.3442	-1393.9	177.30418	1484.3324	-1044.4908	246.79108	1539.2286	-1056.8585	245.70938	1576.8815	-909.54694	253.5997	1564.3411	-969.77063	280.49542	1541.9796	-898.00281
24	0.11	103.30134	1818.0544	-579.61652	135.65987	1803.2811	-521.216	131.73233	1801.6187	-650.45734	1237.7583	37.509815	-1766.9861	1248.0037	32.443287	457.97784	98.484383	1048.1084	-723.81213	307.11591	1097.9775	-620.73541	302.78818	1095.1149	-556.86389	92.388733	1038.4122	-458.41852	298.69485	1111.7799	-588.6767	277.89777	1566.4309	-582.64178	115.18878	1531.2614	-583.86469	279.28873	1256.7034	-576.86432	239.14369	1604.5323	-733.32684	223.01544	1594.7036	-416.36337	226.72327	707.0614	-410.11935	256.62296	651.46008	-428.55594	209.52718	643.7594	-408.09799	220.65332	524.76709	-415.33072	174.17299	506.14749	-517.25739	222.02295	276.32932	-400.20309	269.22479	274.98639	-381.03168	242.69165	214.33513	-391.86676	267.98465	92.541763	-468.07687	287.04446	83.774597	-380.54825	343.97339	39.18961	-422.23816	115.2635	41.448654	-434.42682	145.14937	26.105949	-351.99561	122.66837	36.078251	-388.93393	206.64258	674.94128	-792.57117	253.34167	671.08417	-773.18304	225.09282	613.18054	-781.42419	202.34105	529.36792	-777.99414	178.72903	508.62616	-681.69061	259.58615	277.85291	-811.33051	291.6037	219.52313	-813.93933	240.51213	214.52455	-809.77618	292.76965	75.595184	-813.64728	245.11166	71.142097	-736.36713	340.12354	30.681242	-765.24963	173.11189	26.118162	-862.68732	109.42175	42.5341	-788.40179	134.06113	40.151665	-828.99426	159.6407	1469.2416	-113.80444	232.66257	1508.2483	-115.28516	258.69037	1522.5227	-216.45183	226.12222	1560.4393	-218.41594	235.24501	1564.4095	-280.48367	169.59279	1562.3303	168.15099	140.51456	1627.3608	137.21867	166.83025	1656.3016	236.77736	215.25505	1591.5881	-1340.8582	194.76033	1658.6427	-1307.3514	225.60284	1681.333	-1393.8969	177.34456	1484.3416	-1044.4764	246.78389	1539.198	-1056.8922	245.73076	1576.8855	-909.5473	253.63631	1564.3268	-969.77429	280.52676	1541.9948	-897.99719
25	0.115	103.31661	1818.0427	-579.60657	135.66179	1803.27	-521.2146	131.75034	1801.6102	-650.44788	1237.7614	37.502911	-1766.9794	1247.9506	32.32888	457.97122	98.518852	1048.1179	-723.81488	307.16135	1097.9396	-620.76019	302.84363	1095.1031	-556.88629	92.436409	1038.4208	-458.44577	298.7312	1111.76	-588.71161	277.92267	1566.4274	-582.66028	115.22768	1531.2595	-583.8739	279.33267	1256.7122	-576.88617	239.17157	1604.5278	-733.32849	223.03792	1594.6431	-416.39731	226.74657	707.05359	-410.11121	256.6387	651.45337	-428.58414	209.54829	643.76312	-408.10873	220.65413	524.76709	-415.33255	174.16559	506.12967	-517.25409	222.02075	276.33319	-400.21384	269.23019	274.98538	-381.04486	242.68703	214.3069	-391.89508	268.03391	92.516602	-468.07089	287.04504	83.766541	-380.55573	344.06918	39.198692	-422.18997	115.26219	41.448593	-434.42789	145.14981	26.102129	-351.99716	122.66506	36.078693	-388.93365	206.52264	674.87799	-792.60474	253.3474	671.00806	-773.11926	225.243	613.14105	-781.34705	202.36768	529.35773	-777.99274	178.73563	508.63248	-681.70349	259.58716	277.84622	-811.33057	291.61749	219.50563	-813.93646	240.51543	214.52258	-809.78021	292.76645	75.596008	-813.64569	245.11319	71.144203	-736.36432	339.99478	30.690712	-765.34155	173.10863	26.122913	-862.69092	109.42165	42.531319	-788.40887	134.06337	40.150246	-828.98328	159.64738	1469.2728	-113.81664	232.67863	1508.2557	-115.29105	258.72845	1522.5286	-216.4518	226.16374	1560.444	-218.42311	235.28519	1564.4095	-280.49475	169.59515	1562.3385	168.13292	140.53474	1627.3864	137.2225	166.86308	1656.3132	236.77264	215.2796	1591.5642	-1340.8816	194.79233	1658.6188	-1307.3696	225.62505	1681.2977	-1393.9108	177.39676	1484.3372	-1044.4611	246.80516	1539.1882	-1056.9014	245.75194	1576.8914	-909.55988	253.67236	1564.3241	-969.77765	280.52145	1541.9329	-897.94122
